<?xml version="1.0" encoding="UTF-8"?>
<svg width="37px" height="36px" viewBox="0 0 37 36" version="1.1" xmlns="http://www.w3.org/2000/svg" xmlns:xlink="http://www.w3.org/1999/xlink">
    <!-- Generator: Sketch 54.1 (76490) - https://sketchapp.com -->
    <title>ppt</title>
    <desc>Created with Sketch.</desc>
    <g id="Page-1" stroke="none" stroke-width="1" fill="none" fill-rule="evenodd">
        <g id="Документы-иконки" transform="translate(-92.000000, -359.000000)">
            <g id="ppt" transform="translate(92.000000, 359.000000)">
                <path d="M28.475,0 L9.1,0 C7.388025,0 6,1.40165217 6,3.13043478 L6,3.91304348 L6,19.5652174 L6,29.7391304 L6,32.8695652 C6,34.5991304 7.38725,36 9.1,36 L11.425,36 L31.575,36 L33.9,36 C35.611975,36 37,34.5983478 37,32.8695652 L37,8.60869565 L37,7.82608696 L29.25,0 L28.475,0 Z" id="Shape" fill="#E9EBEB" fill-rule="nonzero"></path>
                <rect id="Rectangle" fill="#66B8EF" x="0" y="16" width="31" height="13" rx="2"></rect>
                <path d="M6.4328,19.088 L8.8424,19.088 C9.86640512,19.088 10.680797,19.385597 11.2856,19.9808 C11.890403,20.576003 12.1928,21.4271945 12.1928,22.5344 C12.1928,23.6480056 11.8872031,24.503997 11.276,25.1024 C10.6647969,25.700803 9.85360506,26 8.8424,26 L6.4328,26 L6.4328,19.088 Z M7.9976,24.7424 L8.8424,24.7424 C9.38000269,24.7424 9.81199837,24.5664018 10.1384,24.2144 C10.4648016,23.8623982 10.628,23.3152037 10.628,22.5728 C10.628,21.8239963 10.4648016,21.2736018 10.1384,20.9216 C9.81199837,20.5695982 9.38000269,20.3936 8.8424,20.3936 L7.9976,20.3936 L7.9976,24.7424 Z M19.172,22.5248 C19.172,23.6640057 18.8840029,24.5471969 18.308,25.1744 C17.7319971,25.8016031 16.9768047,26.1152 16.0424,26.1152 C15.1207954,26.1152 14.3752028,25.8064031 13.8056,25.1888 C13.2359972,24.5711969 12.9512,23.6960057 12.9512,22.5632 C12.9512,21.4239943 13.2391971,20.5408031 13.8152,19.9136 C14.3912029,19.2863969 15.1463953,18.9728 16.0808,18.9728 C17.0024046,18.9728 17.7479972,19.2815969 18.3176,19.8992 C18.8872028,20.5168031 19.172,21.3919943 19.172,22.5248 Z M17.1848,24.2912 C17.4664014,23.9199981 17.6072,23.3440039 17.6072,22.5632 C17.6072,21.7823961 17.4664014,21.2064019 17.1848,20.8352 C16.9031986,20.4639981 16.5288023,20.2784 16.0616,20.2784 C15.5943977,20.2784 15.2200014,20.4639981 14.9384,20.8352 C14.6567986,21.2064019 14.516,21.7823961 14.516,22.5632 C14.516,23.3440039 14.6567986,23.9199981 14.9384,24.2912 C15.2200014,24.6624019 15.5943977,24.848 16.0616,24.848 C16.5288023,24.848 16.9031986,24.6624019 17.1848,24.2912 Z M24.6728,24.32 L25.0376,25.5392 C24.4231969,25.9232019 23.7352038,26.1152 22.9736,26.1152 C22.0391953,26.1152 21.2920028,25.812803 20.732,25.208 C20.1719972,24.603197 19.892,23.7408056 19.892,22.6208 C19.892,21.4623942 20.191197,20.5648032 20.7896,19.928 C21.388003,19.2911968 22.1767951,18.9728 23.156,18.9728 C23.8472035,18.9728 24.4615973,19.1423983 24.9992,19.4816 L24.6344,20.816 C24.3527986,20.6367991 24.1016011,20.5024004 23.8808,20.4128 C23.6599989,20.3231996 23.4184013,20.2784 23.156,20.2784 C22.6439974,20.2784 22.2328016,20.4687981 21.9224,20.8496 C21.6119984,21.2304019 21.4568,21.8079961 21.4568,22.5824 C21.4568,23.3568039 21.6119984,23.9295981 21.9224,24.3008 C22.2328016,24.6720019 22.6535973,24.8576 23.1848,24.8576 C23.6648024,24.8576 24.1607974,24.6784018 24.6728,24.32 Z" id="DOC" fill="#FFFFFF" fill-rule="nonzero"></path>
                <path d="M29.7272727,0 L29,0 L29,5.09090909 C29,6.69745455 30.3025455,8 31.9090909,8 L37,8 L37,7.27272727 L29.7272727,0 Z" id="Path" fill="#C0C6C6" fill-rule="nonzero"></path>
            </g>
        </g>
    </g>
</svg>