<?xml version="1.0" encoding="UTF-8"?>
<svg width="37px" height="36px" viewBox="0 0 37 36" version="1.1" xmlns="http://www.w3.org/2000/svg" xmlns:xlink="http://www.w3.org/1999/xlink">
    <!-- Generator: Sketch 54.1 (76490) - https://sketchapp.com -->
    <title>xls</title>
    <desc>Created with Sketch.</desc>
    <g id="Page-1" stroke="none" stroke-width="1" fill="none" fill-rule="evenodd">
        <g id="Документы-иконки" transform="translate(-144.000000, -359.000000)">
            <g id="xls" transform="translate(144.000000, 359.000000)">
                <path d="M28.475,0 L9.1,0 C7.388025,0 6,1.40165217 6,3.13043478 L6,3.91304348 L6,19.5652174 L6,29.7391304 L6,32.8695652 C6,34.5991304 7.38725,36 9.1,36 L11.425,36 L31.575,36 L33.9,36 C35.611975,36 37,34.5983478 37,32.8695652 L37,8.60869565 L37,7.82608696 L29.25,0 L28.475,0 Z" id="Shape" fill="#E9EBEB" fill-rule="nonzero"></path>
                <rect id="Rectangle" fill="#4FBF8A" x="0" y="16" width="31" height="13" rx="2"></rect>
                <path d="M7.1096,26 L9.1256,22.4384 L7.196,19.088 L8.9048,19.088 L10.1336,21.3632 L11.3528,19.088 L13.004,19.088 L11.0744,22.4384 L13.0904,26 L11.372,26 L10.0664,23.5136 L8.7704,26 L7.1096,26 Z M14.1464,26 L14.1464,19.088 L15.7112,19.088 L15.7112,24.6944 L18.4088,24.6944 L18.4088,26 L14.1464,26 Z M18.956,25.568 L19.3208,24.2912 C20.0312036,24.6752019 20.6455974,24.8672 21.164,24.8672 C21.5096017,24.8672 21.779999,24.7952007 21.9752,24.6512 C22.170401,24.5071993 22.268,24.3168012 22.268,24.08 C22.268,23.9007991 22.2104006,23.7488006 22.0952,23.624 C21.9799994,23.4991994 21.8312009,23.3984004 21.6488,23.3216 C21.4663991,23.2447996 21.2632011,23.1728003 21.0392,23.1056 C20.8151989,23.0383997 20.5912011,22.9568005 20.3672,22.8608 C20.1431989,22.7647995 19.9400009,22.6496007 19.7576,22.5152 C19.5751991,22.3807993 19.4264006,22.1968012 19.3112,21.9632 C19.1959994,21.7295988 19.1384,21.4560016 19.1384,21.1424 C19.1384,20.4831967 19.3687977,19.956802 19.8296,19.5632 C20.2904023,19.169598 20.8951963,18.9728 21.644,18.9728 C22.3672036,18.9728 23.029597,19.1519982 23.6312,19.5104 L23.2664,20.8544 C22.6903971,20.4703981 22.1528025,20.2784 21.6536,20.2784 C21.3591985,20.2784 21.1272008,20.3439993 20.9576,20.4752 C20.7879992,20.6064007 20.7032,20.7807989 20.7032,20.9984 C20.7032,21.190401 20.7799992,21.3503994 20.9336,21.4784 C21.0872008,21.6064006 21.2807988,21.7007997 21.5144,21.7616 C21.7480012,21.8224003 21.9991987,21.9039995 22.268,22.0064 C22.5368013,22.1088005 22.7879988,22.2223994 23.0216,22.3472 C23.2552012,22.4720006 23.4487992,22.6655987 23.6024,22.928 C23.7560008,23.1904013 23.8328,23.5071981 23.8328,23.8784 C23.8328,24.5632034 23.5912024,25.107198 23.108,25.5104 C22.6247976,25.913602 21.983204,26.1152 21.1832,26.1152 C20.3703959,26.1152 19.6280034,25.9328018 18.956,25.568 Z" id="XLS" fill="#FFFFFF" fill-rule="nonzero"></path>
                <path d="M29.7272727,0 L29,0 L29,5.09090909 C29,6.69745455 30.3025455,8 31.9090909,8 L37,8 L37,7.27272727 L29.7272727,0 Z" id="Path" fill="#C0C6C6" fill-rule="nonzero"></path>
            </g>
        </g>
    </g>
</svg>