<svg width="19" height="18" viewBox="0 0 19 18" fill="none" xmlns="http://www.w3.org/2000/svg">
<path d="M14.075 9.805C13.605 9.805 13.225 10.185 13.225 10.655V15.745H2.68499V5.205H7.61799C8.08699 5.205 8.46799 4.824 8.46799 4.355C8.46799 3.886 8.08699 3.505 7.61799 3.505H1.83499C1.36599 3.505 0.984985 3.886 0.984985 4.355V16.595C0.984985 17.065 1.36599 17.445 1.83499 17.445H14.075C14.545 17.445 14.925 17.065 14.925 16.595V10.656C14.925 10.186 14.545 9.805 14.075 9.805Z" fill="#666666"/>
<path d="M17.252 0.458H11.02C10.55 0.458 10.17 0.839 10.17 1.308C10.17 1.777 10.55 2.158 11.02 2.158H15.162L7.34898 10.105C7.01998 10.44 7.02398 10.978 7.35898 11.307C7.52498 11.469 7.73898 11.55 7.95498 11.55C8.17498 11.55 8.39498 11.466 8.56098 11.296L16.402 3.321V7.539C16.402 8.008 16.782 8.389 17.252 8.389C17.722 8.389 18.102 8.008 18.102 7.539V1.308C18.102 0.838 17.722 0.458 17.252 0.458Z" fill="#666666"/>
</svg>
