<svg width="60" height="60" viewBox="0 0 60 60" fill="none" xmlns="http://www.w3.org/2000/svg">
<path d="M52.0107 21.88H25.0498C24.5806 21.88 24.2002 22.2604 24.2002 22.7296C24.2002 23.1988 24.5806 23.5792 25.0498 23.5792H52.0107C52.4799 23.5792 52.8603 23.1988 52.8603 22.7296C52.8603 22.2604 52.4799 21.88 52.0107 21.88Z" fill="#257C39"/>
<path d="M52.0107 28.84H25.0498C24.5806 28.84 24.2002 29.2204 24.2002 29.6896C24.2002 30.1588 24.5806 30.5392 25.0498 30.5392H52.0107C52.4799 30.5392 52.8603 30.1588 52.8603 29.6896C52.8603 29.2204 52.4799 28.84 52.0107 28.84Z" fill="#257C39"/>
<path d="M52.0107 33.48H25.0498C24.5806 33.48 24.2002 33.8604 24.2002 34.3297C24.2002 34.7989 24.5806 35.1793 25.0498 35.1793H52.0107C52.4799 35.1793 52.8603 34.7989 52.8603 34.3297C52.8603 33.8604 52.4799 33.48 52.0107 33.48Z" fill="#257C39"/>
<path d="M54.5396 14.92H22.1813C19.4565 14.92 17.2397 17.1367 17.2397 19.8615V40.2088C17.2397 42.9335 19.4564 45.1503 22.1813 45.1503H44.8614C45.104 45.1503 45.3293 45.2594 45.4797 45.4498L52.8039 54.7223C53.0926 55.0877 53.5138 55.2869 53.9548 55.2869C54.1187 55.2869 54.2854 55.2593 54.449 55.2025C55.0525 54.9929 55.4424 54.4447 55.4424 53.8059V45.0659C57.7335 44.638 59.4812 42.6124 59.4812 40.2088V19.8614C59.4812 17.1367 57.2645 14.92 54.5396 14.92ZM57.782 40.2088C57.782 41.9734 56.3464 43.4273 54.5818 43.4498C54.1169 43.4558 53.743 43.8343 53.743 44.2994V53.1699L46.8132 44.3966C46.3386 43.7956 45.6272 43.451 44.8614 43.451H22.1813C20.3935 43.451 18.939 41.9965 18.939 40.2087V19.8614C18.939 18.0736 20.3934 16.6191 22.1813 16.6191H54.5396C56.3274 16.6191 57.782 18.0736 57.782 19.8614V40.2088Z" fill="#257C39"/>
<path d="M13.5169 28.1797C12.9358 28.2622 12.4154 28.5613 12.0515 29.0219L6.21513 36.4108V29.0055C6.21513 28.5405 5.8413 28.1619 5.37639 28.1559C3.90023 28.1371 2.69922 26.9208 2.69922 25.4445V7.73174C2.69922 6.23609 3.91609 5.01923 5.41174 5.01923H33.5806C35.0762 5.01923 36.2931 6.23609 36.2931 7.73174V11.0092C36.2931 11.4784 36.6735 11.8588 37.1427 11.8588C37.6119 11.8588 37.9923 11.4784 37.9923 11.0092V7.73174C37.9923 5.29914 36.0132 3.32001 33.5806 3.32001H5.41174C2.97914 3.32001 1 5.29914 1 7.73174V25.4445C1 27.5591 2.51468 29.3457 4.51602 29.7632V37.2813C4.51602 37.8848 4.88441 38.4029 5.45467 38.6009C5.6093 38.6546 5.76676 38.6806 5.92173 38.6806C6.33827 38.6806 6.73645 38.4924 7.00912 38.1472L13.385 30.0752C13.477 29.9587 13.6088 29.883 13.7558 29.862C14.2204 29.7961 14.5436 29.366 14.4775 28.9014C14.4116 28.4368 13.9821 28.1134 13.5169 28.1797Z" fill="#257C39"/>
</svg>
