<svg width="60" height="60" viewBox="0 0 60 60" fill="none" xmlns="http://www.w3.org/2000/svg">
<path d="M59 36.6458C59 35.1934 58.4224 33.84 57.4267 32.8419C58.5554 31.607 59.1305 29.9515 58.9734 28.2285C58.6906 25.1569 55.9235 22.7499 52.6707 22.7499H37.743C38.4825 20.5048 39.6666 16.3893 39.6666 13.0833C39.6666 7.84151 35.2128 3.41663 32.4166 3.41663C29.9081 3.41663 28.1125 4.83038 28.0376 4.88838C27.75 5.118 27.5833 5.466 27.5833 5.83326V14.0281L20.6209 29.1058L20.3333 29.2531V28.7915C20.3333 28.1245 19.7919 27.5831 19.1249 27.5831H7.04163C3.70912 27.5833 1 30.2924 1 33.6249V52.9583C1 56.2909 3.70912 58.9999 7.04163 58.9999H14.2916C16.904 58.9999 19.137 57.3324 19.978 55.0051C21.9887 56.0395 24.6954 56.5833 26.375 56.5833H48.5576C51.1894 56.5833 53.4925 54.8094 54.0338 52.3638C54.3116 51.1023 54.1498 49.8335 53.5988 48.7315C55.3823 47.8349 56.5834 45.991 56.5834 43.8958C56.5834 43.0403 56.3876 42.221 56.0179 41.4815C57.8014 40.5825 59 38.741 59 36.6458ZM53.9032 39.6279C53.4369 39.6835 53.0429 40 52.8931 40.4471C52.7457 40.8943 52.869 41.3848 53.2121 41.7086C53.826 42.2863 54.1667 43.0644 54.1667 43.8958C54.1667 45.4206 53.014 46.7015 51.4891 46.8779C51.0227 46.9335 50.6287 47.25 50.479 47.6971C50.3316 48.1443 50.4549 48.6348 50.798 48.9586C51.5931 49.7078 51.9121 50.759 51.6729 51.8418C51.3756 53.1903 50.0657 54.1666 48.5577 54.1666H26.375C24.4126 54.1666 21.1211 53.2459 19.9805 52.1028C19.6349 51.7596 19.1129 51.6581 18.6634 51.8418C18.2115 52.0279 17.9166 52.4701 17.9166 52.9583C17.9166 54.9569 16.2902 56.5833 14.2916 56.5833H7.04163C5.04301 56.5833 3.41663 54.9569 3.41663 52.9583V33.6249C3.41663 31.6263 5.04301 29.9999 7.04163 29.9999H17.9166V31.2083C17.9166 31.6264 18.1341 32.0154 18.4918 32.2378C18.8446 32.4504 19.2893 32.4721 19.6663 32.2885L22.0829 31.0801C22.327 30.9593 22.5228 30.7563 22.6388 30.5074L29.8888 14.799C29.9613 14.6395 29.9999 14.4655 29.9999 14.2915V6.48813C30.5026 6.21025 31.3751 5.83326 32.4166 5.83326C33.741 5.83326 37.25 9.12476 37.25 13.0833C37.25 17.3366 34.9349 23.4676 34.9131 23.5281C34.773 23.8979 34.8213 24.316 35.046 24.6446C35.2731 24.9709 35.6454 25.1666 36.0416 25.1666H52.6707C54.6862 25.1666 56.3972 26.6094 56.5664 28.4509C56.6945 29.8284 56.0323 31.1383 54.8458 31.8705C54.476 32.0976 54.2561 32.5085 54.273 32.9459C54.2899 33.3833 54.5413 33.7748 54.9279 33.9754C55.9501 34.495 56.5833 35.5196 56.5833 36.6458C56.5834 38.1706 55.4306 39.4515 53.9032 39.6279Z" fill="#257C39"/>
<path d="M19.1254 30C18.4584 30 17.917 30.5414 17.917 31.2084V52.9584C17.917 53.6254 18.4584 54.1667 19.1254 54.1667C19.7924 54.1667 20.3337 53.6254 20.3337 52.9584V31.2084C20.3337 30.5414 19.7924 30 19.1254 30Z" fill="#257C39"/>
</svg>
