<svg width="20" height="20" viewBox="0 0 20 20" fill="none" xmlns="http://www.w3.org/2000/svg">
    <path d="M18.917 4.80809L18.9112 4.785C18.4444 2.89786 16.3399 0.872853 14.4072 0.451564L14.3854 0.447076C11.2594 -0.149269 8.08977 -0.149269 4.96441 0.447076L4.94197 0.451564C3.00994 0.872853 0.905419 2.89786 0.437961 4.785L0.432831 4.80809C-0.144277 7.44355 -0.144277 10.1162 0.432831 12.7517L0.437961 12.7747C0.885476 14.5813 2.83328 16.5133 4.69381 17.0446V19.1512C4.69381 19.9136 5.62296 20.2881 6.15133 19.7379L8.28567 17.5193C8.74857 17.5452 9.21174 17.5597 9.6749 17.5597C11.2485 17.5597 12.8227 17.4109 14.3854 17.1127L14.4072 17.1082C16.3399 16.687 18.4444 14.662 18.9112 12.7748L18.917 12.7517C19.4941 10.1162 19.4941 7.44355 18.917 4.80809ZM17.228 12.3695C16.9163 13.6007 15.3184 15.1313 14.0487 15.4141C12.3866 15.7301 10.7113 15.8652 9.03771 15.8189C9.00443 15.818 8.97243 15.8309 8.94921 15.8547C8.7117 16.0985 7.39083 17.4545 7.39083 17.4545L5.73325 19.1556C5.61206 19.282 5.39917 19.196 5.39917 19.0216V15.5319C5.39917 15.4743 5.358 15.4253 5.30138 15.4142C5.30106 15.4141 5.30074 15.4141 5.30042 15.414C4.03078 15.1312 2.43347 13.6006 2.12119 12.3694C1.6018 9.98725 1.6018 7.57237 2.12119 5.1902C2.43347 3.95903 4.03078 2.42842 5.30042 2.14563C8.20327 1.59353 11.1465 1.59353 14.0487 2.14563C15.319 2.42842 16.9163 3.95903 17.228 5.1902C17.7479 7.57244 17.7479 9.98731 17.228 12.3695Z" fill="white"/>
    <path d="M12.4367 13.9803C12.2415 13.921 12.0555 13.8812 11.8827 13.8095C10.0927 13.0669 8.44522 12.1087 7.14024 10.64C6.39815 9.80479 5.81732 8.86186 5.32633 7.86398C5.0935 7.39075 4.89728 6.89899 4.69728 6.41044C4.51491 5.96491 4.78353 5.50463 5.06637 5.16895C5.33178 4.85391 5.6733 4.61281 6.04316 4.43512C6.33184 4.29642 6.61661 4.37639 6.82745 4.62108C7.28324 5.1501 7.7019 5.70617 8.04092 6.31938C8.24938 6.69655 8.19219 7.1576 7.81437 7.41428C7.72255 7.47667 7.63887 7.5499 7.55333 7.62037C7.4783 7.68212 7.4077 7.74452 7.35627 7.82813C7.26227 7.98113 7.25778 8.16157 7.31831 8.32791C7.78423 9.60832 8.56955 10.604 9.8583 11.1402C10.0645 11.226 10.2716 11.3259 10.5092 11.2982C10.9071 11.2517 11.0359 10.8153 11.3147 10.5873C11.5872 10.3645 11.9355 10.3615 12.2291 10.5473C12.5227 10.7331 12.8073 10.9326 13.0902 11.1342C13.368 11.3321 13.6444 11.5257 13.9006 11.7512C14.1469 11.9682 14.2318 12.2528 14.0931 12.5471C13.8391 13.0863 13.4697 13.5348 12.9367 13.8211C12.7862 13.9019 12.6064 13.928 12.4367 13.9803C12.6064 13.928 12.2415 13.921 12.4367 13.9803Z" fill="white"/>
    <path d="M9.67983 3.81866C12.0213 3.88426 13.9444 5.43816 14.3565 7.753C14.4267 8.14742 14.4517 8.55069 14.483 8.95101C14.4961 9.1194 14.4008 9.27939 14.219 9.28157C14.0314 9.28381 13.9469 9.12677 13.9347 8.95845C13.9106 8.62527 13.8939 8.29061 13.848 7.96018C13.6056 6.21597 12.2147 4.77294 10.4786 4.46329C10.2174 4.41667 9.94998 4.40443 9.68534 4.37666C9.51804 4.35909 9.29894 4.34896 9.26187 4.14101C9.23077 3.96666 9.37794 3.82783 9.54395 3.81892C9.58909 3.81642 9.63449 3.81847 9.67983 3.81866C9.63449 3.81847 12.0213 3.88426 9.67983 3.81866Z" fill="white"/>
    <path d="M13.2381 8.43142C13.2343 8.46066 13.2322 8.52941 13.2151 8.59417C13.153 8.82924 12.7966 8.85868 12.7145 8.62142C12.6902 8.55101 12.6865 8.47092 12.6864 8.39513C12.6856 7.8992 12.5778 7.40379 12.3277 6.9723C12.0706 6.52883 11.6779 6.15602 11.2172 5.93043C10.9387 5.79404 10.6374 5.70927 10.3321 5.65874C10.1987 5.63668 10.0638 5.62328 9.92977 5.60462C9.76728 5.58205 9.68052 5.47849 9.68822 5.31838C9.6954 5.16833 9.80505 5.06041 9.96856 5.06964C10.5059 5.10016 11.0249 5.21629 11.5026 5.46926C12.4741 5.98372 13.029 6.79577 13.191 7.88009C13.1983 7.92921 13.2101 7.97788 13.2138 8.02719C13.223 8.14896 13.2288 8.27086 13.2381 8.43142C13.2288 8.27086 13.2343 8.46066 13.2381 8.43142Z" fill="white"/>
    <path d="M11.7817 8.37473C11.5858 8.37826 11.4809 8.26982 11.4607 8.09021C11.4467 7.96498 11.4356 7.83808 11.4057 7.71625C11.3469 7.4763 11.2193 7.25392 11.0175 7.10689C10.9222 7.03744 10.8142 6.98685 10.7011 6.95421C10.5574 6.91272 10.4082 6.92413 10.2648 6.889C10.1091 6.85084 10.023 6.72478 10.0475 6.5787C10.0697 6.44578 10.199 6.34202 10.3443 6.35254C11.2521 6.41807 11.9009 6.88739 11.9935 7.95607C12 8.03148 12.0077 8.11118 11.991 8.18332C11.9623 8.30682 11.8709 8.3687 11.7817 8.37473C11.8709 8.3687 11.5858 8.37826 11.7817 8.37473Z" fill="white"/>
</svg>
