<svg width="22" height="22" viewBox="0 0 22 22" fill="none" xmlns="http://www.w3.org/2000/svg">
<path d="M18.554 3.32867C16.563 1.27912 13.8108 0.166504 11 0.166504C5.02699 0.166504 0.225185 5.02686 0.283743 10.9413C0.283743 12.8152 0.81077 14.6305 1.68915 16.2701L0.166626 21.8332L5.84681 20.3692C7.42789 21.2476 9.18465 21.6575 10.9414 21.6575C16.8558 21.6575 21.6576 16.7971 21.6576 10.8827C21.6576 8.01335 20.545 5.31966 18.554 3.32867ZM11 19.8422C9.41888 19.8422 7.8378 19.4323 6.49095 18.6125L6.1396 18.4368L2.7432 19.3152L3.62158 15.9773L3.38735 15.626C0.81077 11.4683 2.0405 5.9638 6.25672 3.38723C10.4729 0.810648 15.9189 2.04038 18.4955 6.2566C21.072 10.4728 19.8423 15.9188 15.6261 18.4953C14.2792 19.3737 12.6396 19.8422 11 19.8422ZM16.1531 13.3422L15.509 13.0494C15.509 13.0494 14.572 12.6395 13.9865 12.3467C13.9279 12.3467 13.8693 12.2881 13.8108 12.2881C13.6351 12.2881 13.518 12.3467 13.4009 12.4052C13.4009 12.4052 13.3423 12.4638 12.5225 13.4007C12.4639 13.5179 12.3468 13.5764 12.2297 13.5764H12.1711C12.1126 13.5764 11.9955 13.5179 11.9369 13.4593L11.6441 13.3422C11 13.0494 10.4144 12.698 9.94591 12.2296C9.82879 12.1125 9.65312 11.9953 9.536 11.8782C9.12609 11.4683 8.71618 10.9998 8.42339 10.4728L8.36483 10.3557C8.30627 10.2971 8.30627 10.2386 8.24771 10.1215C8.24771 10.0043 8.24771 9.88723 8.30627 9.82867C8.30627 9.82867 8.5405 9.53588 8.71618 9.3602C8.8333 9.24308 8.89186 9.06741 9.00897 8.95029C9.12609 8.77461 9.18465 8.54038 9.12609 8.3647C9.06753 8.07191 8.36483 6.49083 8.18915 6.13948C8.07203 5.9638 7.95492 5.90524 7.77924 5.84669H7.60357C7.48645 5.84669 7.31077 5.84669 7.1351 5.84669C7.01798 5.84669 6.90086 5.90524 6.78375 5.90524L6.72519 5.9638C6.60807 6.02236 6.49095 6.13948 6.37384 6.19804C6.25672 6.31515 6.19816 6.43227 6.08104 6.54939C5.67113 7.07642 5.4369 7.72056 5.4369 8.3647C5.4369 8.83317 5.55402 9.30164 5.72969 9.71155L5.78825 9.88723C6.31528 10.9998 7.01798 11.9953 7.95492 12.8737L8.18915 13.1079C8.36483 13.2836 8.5405 13.4007 8.65762 13.5764C9.88735 14.6305 11.2928 15.3917 12.8738 15.8016C13.0495 15.8602 13.2837 15.8602 13.4594 15.9188C13.6351 15.9188 13.8693 15.9188 14.045 15.9188C14.3378 15.9188 14.6892 15.8016 14.9234 15.6845C15.0991 15.5674 15.2162 15.5674 15.3333 15.4503L15.4504 15.3332C15.5675 15.2161 15.6847 15.1575 15.8018 15.0404C15.9189 14.9233 16.036 14.8061 16.0946 14.689C16.2117 14.4548 16.2702 14.162 16.3288 13.8692C16.3288 13.7521 16.3288 13.5764 16.3288 13.4593C16.3288 13.4593 16.2702 13.4007 16.1531 13.3422Z" fill="white"/>
</svg>
